<svg xmlns="http://www.w3.org/2000/svg" width="152.351" height="124.08" viewBox="0 0 152.351 124.08">
  <path id="twitter_4_" data-name="twitter (4)" d="M134.273,19.932l-.076-.293A32.24,32.24,0,0,0,148.183,2.083a65,65,0,0,1-20.234,7.736A30.041,30.041,0,0,0,105.632,0,31.488,31.488,0,0,0,74.091,31.244,58.448,58.448,0,0,0,74.6,38.7a89.051,89.051,0,0,1-42.516-14.7A82.169,82.169,0,0,1,14.491,8.812,5.951,5.951,0,0,0,3.936,13.4c.142.922,3.048,19.14,14.028,35.014a15.77,15.77,0,0,1-4.38-1.255,5.83,5.83,0,0,0-6.662.514,5.987,5.987,0,0,0-1.864,6.556c.251.767,5.473,15.995,24.542,24.065a30.459,30.459,0,0,1-7.756,1.159h-.122a5.951,5.951,0,0,0-3.638,10.66c.459.355,9,6.84,22.868,10.118a42.176,42.176,0,0,1-17.141,4.8,58.682,58.682,0,0,1-16.44-1.01A5.951,5.951,0,0,0,3.657,115.29c.859.358,21.271,8.791,41.572,8.791,14.092,0,24.647-1.283,34.221-4.161a71.662,71.662,0,0,0,31.008-18.73A5.951,5.951,0,1,0,102,92.818C86.1,108.886,67.8,112.179,45.229,112.179q-.793,0-1.588-.021a44.489,44.489,0,0,0,16.01-12.275,5.951,5.951,0,0,0-4.428-9.721A57.725,57.725,0,0,1,39,87.312,26.135,26.135,0,0,0,48.2,79.745,5.951,5.951,0,0,0,44.5,70.318c-9.991-1.8-16.627-5.817-20.931-9.776A41.632,41.632,0,0,0,31.5,59.335a5.951,5.951,0,0,0,2.686-10.059A58.775,58.775,0,0,1,22.064,31.56q1.468,1.051,3.059,2.112A102.321,102.321,0,0,0,81.829,50.882a5.958,5.958,0,0,0,5.744-7.509,53.219,53.219,0,0,1-1.578-12.13,19.032,19.032,0,0,1,5.758-13.627A19.657,19.657,0,0,1,105.633,11.9a18.134,18.134,0,0,1,13.639,6.063c2.727,2.566,5.7,9.41,5.7,13.541v3.606a3.505,3.505,0,0,0,.043.5,6.188,6.188,0,0,0-.043.692c0,13.528-2.5,25.573-7.442,35.8a5.951,5.951,0,1,0,10.718,5.177c5.725-11.852,8.627-25.638,8.627-40.973a6.057,6.057,0,0,0-.041-.67,3.966,3.966,0,0,0,.041-.521V30.946A64.658,64.658,0,0,0,152.35,14.283s-10.971,5.2-18.077,5.649Zm0,0" transform="translate(0.001)" fill="#eb4a63"/>
</svg>
