<svg id="instagram_6_" data-name="instagram (6)" xmlns="http://www.w3.org/2000/svg" width="132.365" height="132.365" viewBox="0 0 132.365 132.365">
  <g id="Group_1017" data-name="Group 1017">
    <g id="Group_1016" data-name="Group 1016">
      <path id="Path_7826" data-name="Path 7826" d="M93.915,0H38.45A38.494,38.494,0,0,0,0,38.45V93.915a38.494,38.494,0,0,0,38.45,38.45H93.915a38.045,38.045,0,0,0,17.388-4.149,38.788,38.788,0,0,0,13.261-11.081,5.17,5.17,0,1,0-8.238-6.25,27.916,27.916,0,0,1-22.41,11.139H38.45A28.141,28.141,0,0,1,10.341,93.915V38.45A28.141,28.141,0,0,1,38.45,10.341H93.915A28.141,28.141,0,0,1,122.024,38.45V88.674a5.171,5.171,0,0,0,10.341,0V38.45A38.493,38.493,0,0,0,93.915,0Z" fill="#eb4a63"/>
    </g>
  </g>
  <g id="Group_1019" data-name="Group 1019" transform="translate(30.506 30.506)">
    <g id="Group_1018" data-name="Group 1018">
      <path id="Path_7827" data-name="Path 7827" d="M153.677,118a35.677,35.677,0,1,0,35.677,35.677A35.717,35.717,0,0,0,153.677,118Zm0,61.012a25.336,25.336,0,1,1,25.336-25.336A25.364,25.364,0,0,1,153.677,179.012Z" transform="translate(-118 -118)" fill="#eb4a63"/>
    </g>
  </g>
  <g id="Group_1021" data-name="Group 1021" transform="translate(97.206 24.818)">
    <g id="Group_1020" data-name="Group 1020">
      <circle id="Ellipse_1465" data-name="Ellipse 1465" cx="5.171" cy="5.171" r="5.171" fill="#eb4a63"/>
    </g>
  </g>
</svg>
