<svg xmlns="http://www.w3.org/2000/svg" width="128.014" height="128.001" viewBox="0 0 128.014 128.001">
  <path id="Gumroad" d="M18,19h88c.085,0,.17-.012.255-.016A12,12,0,1,0,106.267,5H18.286A18.136,18.136,0,0,0,0,22.939v87.122A18.136,18.136,0,0,0,18.286,128h91.429A18.136,18.136,0,0,0,128,110.061v-52.5C128,47.667,120.083,39,110,39H58A17.941,17.941,0,0,0,40,57V73A17.941,17.941,0,0,0,58,91H82.5a11.99,11.99,0,1,0-.464-14H58c-2.653,0-4-1.4-4-4V57c0-2.6,1.347-4,4-4h52c2.653,0,4,1.4,4,4v53c0,2.6-1.347,4-4,4H18c-2.653,0-4-1.4-4-4V23C14,20.4,15.347,19,18,19Z" transform="translate(0 0.001)" fill="#eb4a63"/>
</svg>
