<?xml version="1.0" encoding="utf-8"?>
<!-- Generator: Adobe Illustrator 24.0.3, SVG Export Plug-In . SVG Version: 6.00 Build 0)  -->
<svg version="1.1" id="Layer_1" xmlns="http://www.w3.org/2000/svg" xmlns:xlink="http://www.w3.org/1999/xlink" x="0px" y="0px"
	 viewBox="0 0 138.3 125.6" style="enable-background:new 0 0 138.3 125.6;" xml:space="preserve">
<style type="text/css">
	.st0{fill:#8D00E3;}
	.st1{fill:#FFFFFF;}
</style>
<g>
	<circle class="st0" cx="70.6" cy="63.3" r="61"/>
	<path id="mail_2_" class="st1" d="M93.4,33.3H44c-6.2,0-11.2,5-11.2,11.2v32.4c0,6.2,5,11.2,11.2,11.2h19.3c1.5,0,2.8-1.3,2.8-2.8
		c0-1.5-1.3-2.8-2.8-2.8H44c-3.1,0-5.6-2.5-5.6-5.6V45.1l24.4,15.1c3.6,2.3,8.2,2.3,11.8,0L99,45.1V62c0,1.5,1.3,2.8,2.8,2.8
		s2.8-1.3,2.8-2.8c0,0,0,0,0,0V44.5C104.6,38.3,99.6,33.3,93.4,33.3z M71.7,55.5c-1.8,1.1-4.1,1.1-5.9,0l-25-15.5
		c1-0.7,2.1-1.1,3.3-1.1h49.4c1.2,0,2.3,0.4,3.3,1.1L71.7,55.5z M102.8,84.6c-1.3-0.5-2.2-1.8-2.2-3.2v-4.2c0-5.8-4-10.9-9.7-12.3
		v-1.8c0-1.5-1.3-2.8-2.8-2.8c-1.5,0-2.8,1.3-2.8,2.8V65c-5.7,1.3-9.8,6.4-9.8,12.3v4.2c0,1.4-0.9,2.7-2.2,3.2
		c-1.1,0.4-1.9,1.4-1.8,2.6c0,1.9,0.6,3.7,1.7,5.2c1.4,2,3.7,3.2,6.2,3.2h6c0,1.5,1.3,2.8,2.8,2.8c1.5,0,2.8-1.3,2.8-2.8h5.9
		c2.5,0,4.8-1.2,6.2-3.2c1.1-1.5,1.7-3.4,1.7-5.2C104.7,86.1,103.9,85,102.8,84.6L102.8,84.6z M96.8,90.1H79.3
		c-0.9,0-1.6-0.5-1.9-1.3c2.3-1.7,3.7-4.4,3.7-7.3v-4.2c0-3.8,3.1-6.9,6.9-7H88h0.1c3.8,0.1,6.9,3.2,6.9,7v4.2
		c0,2.9,1.4,5.6,3.7,7.3C98.4,89.5,97.6,90.1,96.8,90.1L96.8,90.1z"/>
</g>
</svg>
