<?xml version="1.0" encoding="utf-8"?>
<!-- Generator: Adobe Illustrator 24.0.3, SVG Export Plug-In . SVG Version: 6.00 Build 0)  -->
<svg version="1.1" id="Layer_1" xmlns="http://www.w3.org/2000/svg" xmlns:xlink="http://www.w3.org/1999/xlink" x="0px" y="0px"
	 viewBox="0 0 121.1 110" style="enable-background:new 0 0 121.1 110;" xml:space="preserve">
<style type="text/css">
	.st0{fill:#FFFFFF;}
</style>
<path id="mail_2_" class="st0" d="M100.6,1.6H19.7C9.5,1.6,1.3,9.9,1.3,20v53.1c0,10.2,8.2,18.4,18.4,18.4h31.7
	c2.5,0,4.6-2.1,4.6-4.6c0-2.5-2.1-4.6-4.6-4.6H19.7c-5.1,0-9.2-4.1-9.2-9.2V21l39.9,24.8c5.9,3.7,13.5,3.7,19.4,0L109.8,21v27.8
	c0,2.5,2.1,4.6,4.6,4.6c2.5,0,4.6-2.1,4.6-4.6c0,0,0,0,0,0V20C119,9.9,110.8,1.6,100.6,1.6z M65,38c-3,1.9-6.7,1.9-9.7,0l-41-25.5
	c1.6-1.1,3.4-1.7,5.4-1.7h80.9c1.9,0,3.8,0.6,5.4,1.7L65,38z M116,85.9c-2.1-0.9-3.6-2.9-3.6-5.2v-6.9c0-9.6-6.6-17.9-15.9-20.1v-3
	c0-2.5-2.1-4.6-4.6-4.6c-2.5,0-4.6,2.1-4.6,4.6v3c-9.4,2.2-16.1,10.5-16.1,20.2v6.9c-0.1,2.3-1.5,4.4-3.6,5.2
	c-1.8,0.6-3.1,2.4-3,4.3c0,3.1,1,6.1,2.8,8.6c2.3,3.3,6.1,5.2,10.1,5.2h9.9c0,2.5,2.1,4.6,4.6,4.6c2.5,0,4.6-2.1,4.6-4.6h9.6
	c4,0,7.8-1.9,10.1-5.2c1.8-2.5,2.7-5.5,2.8-8.6C119,88.2,117.8,86.5,116,85.9L116,85.9z M106.1,94.7H77.4c-1.4,0-2.7-0.9-3.1-2.2
	c3.8-2.7,6.1-7.2,6.1-11.9v-6.9c0-6.3,5.1-11.4,11.3-11.5h0.1h0.1c6.3,0.1,11.3,5.2,11.3,11.5v6.9c0,4.7,2.2,9.2,6.1,11.9
	C108.8,93.9,107.5,94.7,106.1,94.7L106.1,94.7z"/>
</svg>
